<svg xmlns="http://www.w3.org/2000/svg" xmlns:xlink="http://www.w3.org/1999/xlink" width="500" zoomAndPan="magnify" viewBox="0 0 375 374.999991" height="500" preserveAspectRatio="xMidYMid meet" version="1.2"><defs><clipPath id="5f6f5d546a"><path d="M 109.050781 118.683594 L 266 118.683594 L 266 256.316406 L 109.050781 256.316406 Z M 109.050781 118.683594 "/></clipPath><clipPath id="941ad2d735"><path d="M 109.050781 159.289062 C 109.050781 203 187.5 256.316406 187.5 256.316406 C 187.5 256.316406 265.605469 202.625 265.949219 159.289062 C 265.949219 136.914062 247.71875 118.683594 225.34375 118.683594 C 208.148438 118.683594 193.335938 129.699219 187.5 144.824219 C 181.664062 129.699219 166.851562 118.683594 149.65625 118.683594 C 127.28125 118.683594 109.050781 136.914062 109.050781 159.289062 "/></clipPath><filter x="0%" y="0%" width="100%" filterUnits="objectBoundingBox" id="8c8b0f707f" height="100%"><feColorMatrix values="0 0 0 0 1 0 0 0 0 1 0 0 0 0 1 0 0 0 1 0" type="matrix" in="SourceGraphic"/></filter><clipPath id="2c04846f45"><path d="M 0.0664062 0.78125 L 125 0.78125 L 125 110.316406 L 0.0664062 110.316406 Z M 0.0664062 0.78125 "/></clipPath><clipPath id="a1e6a48277"><path d="M 0.0664062 33.097656 C 0.0664062 67.886719 62.5 110.316406 62.5 110.316406 C 62.5 110.316406 124.660156 67.585938 124.933594 33.097656 C 124.933594 15.292969 110.425781 0.78125 92.617188 0.78125 C 78.933594 0.78125 67.144531 9.546875 62.5 21.585938 C 57.855469 9.546875 46.066406 0.78125 32.382812 0.78125 C 14.574219 0.78125 0.0664062 15.292969 0.0664062 33.097656 "/></clipPath><clipPath id="36743474f7"><rect x="0" width="126" y="0" height="111"/></clipPath></defs><g id="7babadfb4d"><g style="fill:#183e9f;fill-opacity:1;"><g transform="translate(157.48419, 218.000201)"><path style="stroke:none" d="M 4.703125 0 L 4 0 L 4 -2.578125 L 1.34375 -2.578125 L 1.34375 0 L 0.65625 0 L 0.65625 -4.96875 C 0.65625 -4.96875 0.644531 -5.003906 0.625 -5.078125 C 0.601562 -5.160156 0.582031 -5.238281 0.5625 -5.3125 C 0.550781 -5.394531 0.546875 -5.441406 0.546875 -5.453125 L 1.34375 -5.453125 L 1.34375 -3.09375 L 4 -3.09375 L 4 -5.453125 L 4.703125 -5.453125 Z M 4.703125 0 "/></g></g><g style="fill:#183e9f;fill-opacity:1;"><g transform="translate(162.839183, 218.000201)"><path style="stroke:none" d="M 3.8125 0 L 0.640625 0 L 0.640625 -4.96875 C 0.640625 -4.96875 0.628906 -5.003906 0.609375 -5.078125 C 0.597656 -5.160156 0.582031 -5.238281 0.5625 -5.3125 C 0.550781 -5.394531 0.546875 -5.441406 0.546875 -5.453125 L 3.8125 -5.453125 L 3.8125 -4.9375 L 1.34375 -4.9375 L 1.34375 -3.0625 L 3.265625 -3.0625 L 3.265625 -2.546875 L 1.34375 -2.546875 L 1.34375 -0.515625 L 3.8125 -0.515625 Z M 3.8125 0 "/></g></g><g style="fill:#183e9f;fill-opacity:1;"><g transform="translate(166.956681, 218.000201)"><path style="stroke:none" d="M 4.609375 0 L 3.828125 0 L 3.203125 -1.875 L 1.40625 -1.875 L 0.765625 0 L 0.140625 0 L 2.03125 -5.453125 L 2.71875 -5.453125 Z M 3.03125 -2.390625 L 2.3125 -4.546875 L 1.578125 -2.390625 Z M 3.03125 -2.390625 "/></g></g><g style="fill:#183e9f;fill-opacity:1;"><g transform="translate(171.689179, 218.000201)"><path style="stroke:none" d="M 3.640625 0 L 0.640625 0 L 0.640625 -4.96875 C 0.640625 -4.96875 0.628906 -5.003906 0.609375 -5.078125 C 0.597656 -5.160156 0.582031 -5.238281 0.5625 -5.3125 C 0.550781 -5.394531 0.546875 -5.441406 0.546875 -5.453125 L 1.34375 -5.453125 L 1.34375 -0.515625 L 3.640625 -0.515625 Z M 3.640625 0 "/></g></g><g style="fill:#183e9f;fill-opacity:1;"><g transform="translate(175.544173, 218.000201)"><path style="stroke:none" d="M 2.515625 0 L 1.796875 0 L 1.796875 -4.9375 L 0.1875 -4.9375 L 0.1875 -5.453125 L 4.15625 -5.453125 L 4.15625 -4.9375 L 2.515625 -4.9375 Z M 2.515625 0 "/></g></g><g style="fill:#183e9f;fill-opacity:1;"><g transform="translate(179.879166, 218.000201)"><path style="stroke:none" d="M 4.703125 0 L 4 0 L 4 -2.578125 L 1.34375 -2.578125 L 1.34375 0 L 0.65625 0 L 0.65625 -4.96875 C 0.65625 -4.96875 0.644531 -5.003906 0.625 -5.078125 C 0.601562 -5.160156 0.582031 -5.238281 0.5625 -5.3125 C 0.550781 -5.394531 0.546875 -5.441406 0.546875 -5.453125 L 1.34375 -5.453125 L 1.34375 -3.09375 L 4 -3.09375 L 4 -5.453125 L 4.703125 -5.453125 Z M 4.703125 0 "/></g></g><g style="fill:#183e9f;fill-opacity:1;"><g transform="translate(186.959156, 218.000201)"><path style="stroke:none" d="M 4.234375 -0.9375 L 4.546875 -0.4375 C 4.347656 -0.269531 4.09375 -0.140625 3.78125 -0.046875 C 3.46875 0.046875 3.171875 0.09375 2.890625 0.09375 C 2.097656 0.09375 1.472656 -0.175781 1.015625 -0.71875 C 0.566406 -1.269531 0.34375 -1.945312 0.34375 -2.75 C 0.34375 -3.550781 0.566406 -4.210938 1.015625 -4.734375 C 1.472656 -5.265625 2.101562 -5.53125 2.90625 -5.53125 C 3.195312 -5.53125 3.5 -5.476562 3.8125 -5.375 C 4.125 -5.28125 4.363281 -5.132812 4.53125 -4.9375 L 4.140625 -4.5 C 4.003906 -4.65625 3.816406 -4.78125 3.578125 -4.875 C 3.335938 -4.96875 3.109375 -5.015625 2.890625 -5.015625 C 2.578125 -5.015625 2.300781 -4.945312 2.0625 -4.8125 C 1.832031 -4.675781 1.648438 -4.492188 1.515625 -4.265625 C 1.378906 -4.046875 1.273438 -3.800781 1.203125 -3.53125 C 1.140625 -3.269531 1.109375 -2.992188 1.109375 -2.703125 C 1.109375 -2.398438 1.140625 -2.117188 1.203125 -1.859375 C 1.273438 -1.597656 1.378906 -1.363281 1.515625 -1.15625 C 1.648438 -0.945312 1.835938 -0.78125 2.078125 -0.65625 C 2.316406 -0.53125 2.59375 -0.46875 2.90625 -0.46875 C 3.125 -0.46875 3.359375 -0.507812 3.609375 -0.59375 C 3.859375 -0.6875 4.066406 -0.800781 4.234375 -0.9375 Z M 4.234375 -0.9375 "/></g></g><g style="fill:#183e9f;fill-opacity:1;"><g transform="translate(191.639154, 218.000201)"><path style="stroke:none" d="M 4.609375 0 L 3.828125 0 L 3.203125 -1.875 L 1.40625 -1.875 L 0.765625 0 L 0.140625 0 L 2.03125 -5.453125 L 2.71875 -5.453125 Z M 3.03125 -2.390625 L 2.3125 -4.546875 L 1.578125 -2.390625 Z M 3.03125 -2.390625 "/></g></g><g style="fill:#183e9f;fill-opacity:1;"><g transform="translate(196.371652, 218.000201)"><path style="stroke:none" d="M 4.5 0 L 3.6875 0 L 2.265625 -2.46875 C 2.148438 -2.457031 1.960938 -2.453125 1.703125 -2.453125 L 1.328125 -2.453125 L 1.328125 0 L 0.640625 0 L 0.640625 -4.96875 C 0.640625 -4.96875 0.628906 -5.003906 0.609375 -5.078125 C 0.585938 -5.160156 0.566406 -5.238281 0.546875 -5.3125 C 0.535156 -5.394531 0.53125 -5.441406 0.53125 -5.453125 L 2.15625 -5.453125 C 3.382812 -5.453125 4 -4.953125 4 -3.953125 C 4 -3.648438 3.894531 -3.367188 3.6875 -3.109375 C 3.488281 -2.859375 3.25 -2.6875 2.96875 -2.59375 Z M 1.328125 -2.96875 L 1.9375 -2.96875 C 2.351562 -2.96875 2.679688 -3.039062 2.921875 -3.1875 C 3.160156 -3.34375 3.28125 -3.613281 3.28125 -4 C 3.28125 -4.300781 3.171875 -4.53125 2.953125 -4.6875 C 2.734375 -4.851562 2.46875 -4.9375 2.15625 -4.9375 L 1.328125 -4.9375 Z M 1.328125 -2.96875 "/></g></g><g style="fill:#183e9f;fill-opacity:1;"><g transform="translate(200.804148, 218.000201)"><path style="stroke:none" d="M 3.8125 0 L 0.640625 0 L 0.640625 -4.96875 C 0.640625 -4.96875 0.628906 -5.003906 0.609375 -5.078125 C 0.597656 -5.160156 0.582031 -5.238281 0.5625 -5.3125 C 0.550781 -5.394531 0.546875 -5.441406 0.546875 -5.453125 L 3.8125 -5.453125 L 3.8125 -4.9375 L 1.34375 -4.9375 L 1.34375 -3.0625 L 3.265625 -3.0625 L 3.265625 -2.546875 L 1.34375 -2.546875 L 1.34375 -0.515625 L 3.8125 -0.515625 Z M 3.8125 0 "/></g></g><path style=" stroke:none;fill-rule:nonzero;fill:#1b9ce4;fill-opacity:1;" d="M 71.265625 169.386719 C 71.265625 107.949219 121.074219 58.144531 182.511719 58.144531 C 210.601562 58.144531 236.25 68.558594 255.828125 85.730469 C 234.535156 52.71875 197.429688 30.855469 155.222656 30.855469 C 89.152344 30.855469 35.585938 84.421875 35.585938 150.492188 C 35.585938 207.898438 76.019531 255.851562 129.960938 267.449219 C 95.023438 248.691406 71.265625 211.8125 71.265625 169.386719 "/><path style=" stroke:none;fill-rule:nonzero;fill:#183e9f;fill-opacity:1;" d="M 297.40625 1.765625 C 295.210938 0.941406 294.238281 3.234375 293.863281 6.316406 C 293.125 12.335938 295.535156 18.292969 300.097656 22.289062 C 347.792969 64.085938 338.535156 166.484375 307.367188 160.378906 C 286.898438 156.375 308.695312 95.535156 291.636719 93.464844 C 280.300781 92.085938 270.230469 120.285156 270.949219 157.46875 C 271.363281 178.742188 278.195312 196.300781 284.195312 211.539062 C 292.890625 233.609375 284.902344 258.882812 264.90625 271.640625 C 201.273438 312.253906 115.808594 304.769531 60.226562 249.183594 C 30.863281 219.820312 14.929688 182.109375 12.417969 143.683594 C 0.140625 200.585938 16.164062 262.359375 60.496094 306.507812 C 116.371094 362.152344 205.59375 373.734375 273.882812 334.300781 C 338.707031 296.863281 365.820312 219.828125 369.679688 148.207031 C 374.585938 57.105469 322.300781 11.140625 297.40625 1.765625 Z M 288.472656 51.613281 C 313.25 73.390625 322.617188 111.527344 321.515625 142.246094 C 325.40625 132.722656 327.519531 118.773438 327.03125 103.839844 C 326.390625 83.875 321.636719 65.179688 313.691406 50.027344 C 303.410156 40.136719 293.285156 33.882812 285.703125 31.027344 C 283.457031 30.183594 282.492188 32.597656 282.132812 35.789062 C 281.464844 41.777344 283.945312 47.636719 288.472656 51.613281 "/><g clip-rule="nonzero" clip-path="url(#5f6f5d546a)"><g clip-rule="nonzero" clip-path="url(#941ad2d735)"><path style=" stroke:none;fill-rule:nonzero;fill:#183e9f;fill-opacity:1;" d="M 109.050781 118.683594 L 265.808594 118.683594 L 265.808594 256.316406 L 109.050781 256.316406 Z M 109.050781 118.683594 "/></g></g><g mask="url(#fd9111153e)" transform="matrix(1,0,0,1,125,146)"><g clip-path="url(#36743474f7)"><g clip-rule="nonzero" clip-path="url(#2c04846f45)"><g clip-rule="nonzero" clip-path="url(#a1e6a48277)"><path style=" stroke:none;fill-rule:nonzero;fill:#54afe6;fill-opacity:1;" d="M 0.0664062 0.78125 L 124.820312 0.78125 L 124.820312 110.316406 L 0.0664062 110.316406 Z M 0.0664062 0.78125 "/></g></g></g><mask id="fd9111153e"><g filter="url(#8c8b0f707f)"><rect x="0" width="375" y="0" height="374.999991" style="fill:#000000;fill-opacity:0.82;stroke:none;"/></g></mask></g></g></svg>